<?xml version="1.0" encoding="UTF-8"?>
<svg id="Layer_2" xmlns="http://www.w3.org/2000/svg" version="1.1" viewBox="0 0 841.9 595.3">
  <!-- Generator: Adobe Illustrator 29.1.0, SVG Export Plug-In . SVG Version: 2.1.0 Build 142)  -->
  <defs>
    <style>
      .st0 {
        fill: #61dafb;
      }
    </style>
  </defs>
  <path class="st0" d="M266.9,407.3l-127.3-83.4c-3.4-2.4-4.4-5.9-4.4-10.7v-29.8c0-4.9,1-8.3,4.4-10.2l127.3-83.9c8.3-4.9,12.2-4.9,17.6,2.4l15.6,24.9c5.9,8.8,3.9,12.2-2.4,17.1l-97.1,61.9c-2.4,2-2.4,3.4-.5,5.4l97.6,62c6.3,4.4,8.3,8.8,2.4,17.1l-15.6,24.9c-5.9,8.3-11.2,6.3-17.6,2.4Z"/>
  <path class="st0" d="M345.9,505.8c-8.3,0-12.7-5.4-9.8-16.1l111.2-382.4c2.9-10.7,9.8-16.1,19.5-16.1h19.5c9.8,0,15.6,5.4,12.7,16.1l-111.2,382.4c-2.9,10.7-8.8,16.1-20,16.1h-22Z"/>
  <path class="st0" d="M540,380c-5.9-8.3-3.9-12.7,2.4-17.1l97.6-62c2-2,2-3.4-.5-5.4l-97.1-61.9c-6.3-4.9-8.3-8.3-2.4-17.1l15.6-24.9c5.4-7.3,9.3-7.3,17.6-2.4l127.3,83.9c3.4,2,4.4,5.4,4.4,10.2v29.8c0,4.9-1,8.3-4.4,10.7l-127.3,83.4c-6.3,3.9-11.7,5.9-17.6-2.4l-15.6-24.9Z"/>
</svg>